<svg width="1512" height="982" viewBox="0 0 1512 982" fill="none" xmlns="http://www.w3.org/2000/svg">
<g clip-path="url(#clip0_55_9)">
<rect width="1512" height="982" fill="url(#paint0_linear_55_9)"/>
<path d="M328.223 760.112L-69.8875 1158.22C-75.1175 1163.45 -83.6774 1163.45 -88.9074 1158.22L-90.0775 1157.05C-95.3075 1151.82 -95.3075 1143.26 -90.0775 1138.03L308.032 739.922C313.262 734.692 321.822 734.692 327.052 739.922L328.223 741.092C333.453 746.322 333.453 754.882 328.223 760.112Z" fill="white" fill-opacity="0.05"/>
<path d="M541.223 922.112L143.113 1320.22C137.883 1325.45 129.322 1325.45 124.092 1320.22L122.923 1319.05C117.693 1313.82 117.693 1305.26 122.923 1300.03L521.032 901.922C526.262 896.692 534.822 896.692 540.052 901.922L541.223 903.092C546.453 908.322 546.453 916.882 541.223 922.112Z" fill="white" fill-opacity="0.05"/>
<path d="M155.223 686.112L-242.887 1084.22C-248.117 1089.45 -256.677 1089.45 -261.907 1084.22L-263.077 1083.05C-268.307 1077.82 -268.307 1069.26 -263.077 1064.03L135.032 665.922C140.262 660.692 148.822 660.692 154.052 665.922L155.223 667.092C160.453 672.322 160.453 680.882 155.223 686.112Z" fill="white" fill-opacity="0.05"/>
<path d="M284.222 655.122L-113.887 1053.23C-119.117 1058.46 -127.678 1058.46 -132.908 1053.23L-134.077 1052.06C-139.307 1046.83 -139.307 1038.27 -134.077 1033.04L264.032 634.922C269.262 629.692 277.822 629.692 283.052 634.922L284.222 636.092C289.452 641.322 289.452 649.882 284.222 655.112L284.222 655.122Z" fill="white" fill-opacity="0.05"/>
<path d="M6.22247 713.122L-391.887 1111.23C-397.117 1116.46 -405.678 1116.46 -410.908 1111.23L-412.077 1110.06C-417.307 1104.83 -417.307 1096.27 -412.077 1091.04L-13.9675 692.922C-8.73753 687.692 -0.17751 687.692 5.05249 692.922L6.22247 694.092C11.4525 699.322 11.4525 707.882 6.22247 713.112L6.22247 713.122Z" fill="white" fill-opacity="0.05"/>
<path d="M491.636 748.266L-255.734 1495.64C-265.552 1505.45 -281.622 1505.45 -291.44 1495.64L-293.636 1493.44C-303.455 1483.62 -303.455 1467.55 -293.636 1457.73L453.734 710.364C463.552 700.545 479.621 700.545 489.44 710.364L491.636 712.56C501.455 722.378 501.455 738.448 491.636 748.266Z" fill="white" fill-opacity="0.05"/>
<path d="M481.408 859.912L218.912 1122.41C215.457 1125.86 209.822 1125.86 206.366 1122.41L205.592 1121.63C202.136 1118.18 202.136 1112.54 205.592 1109.09L468.088 846.592C471.543 843.136 477.179 843.136 480.634 846.592L481.408 847.366C484.864 850.822 484.864 856.457 481.408 859.912Z" fill="white" fill-opacity="0.05"/>
<path d="M1322.22 -233.887L924.113 164.223C918.883 169.453 910.323 169.453 905.093 164.223L903.923 163.052C898.693 157.822 898.693 149.263 903.923 144.033L1302.03 -254.077C1307.26 -259.307 1315.82 -259.307 1321.05 -254.077L1322.22 -252.908C1327.45 -247.678 1327.45 -239.117 1322.22 -233.887Z" fill="white" fill-opacity="0.05"/>
<path d="M1149.22 -307.887L751.113 90.2225C745.883 95.4525 737.323 95.4525 732.093 90.2225L730.923 89.0524C725.693 83.8224 725.693 75.2625 730.923 70.0325L1129.03 -328.077C1134.26 -333.307 1142.82 -333.307 1148.05 -328.077L1149.22 -326.908C1154.45 -321.678 1154.45 -313.117 1149.22 -307.887Z" fill="white" fill-opacity="0.05"/>
<path d="M789.167 -178.903L606.098 4.1675C603.688 6.5775 599.758 6.5775 597.348 4.1675L596.808 3.62749C594.398 1.21749 594.398 -2.71251 596.808 -5.12251L779.878 -188.192C782.288 -190.602 786.218 -190.602 788.628 -188.192L789.167 -187.653C791.577 -185.243 791.577 -181.313 789.167 -178.903Z" fill="white" fill-opacity="0.05"/>
<path d="M1278.22 -338.877L880.113 59.2325C874.883 64.4625 866.322 64.4625 861.092 59.2325L859.923 58.0625C854.693 52.8325 854.693 44.2725 859.923 39.0425L1258.03 -359.077C1263.26 -364.307 1271.82 -364.307 1277.05 -359.077L1278.22 -357.908C1283.45 -352.678 1283.45 -344.117 1278.22 -338.887V-338.877Z" fill="white" fill-opacity="0.05"/>
<path d="M1000.22 -280.877L602.113 117.232C596.883 122.462 588.322 122.462 583.092 117.232L581.923 116.062C576.693 110.832 576.693 102.273 581.923 97.0425L980.032 -301.077C985.262 -306.307 993.822 -306.307 999.052 -301.077L1000.22 -299.908C1005.45 -294.678 1005.45 -286.117 1000.22 -280.887V-280.877Z" fill="white" fill-opacity="0.05"/>
<path d="M1519.17 79.0975L1336.1 262.167C1333.69 264.577 1329.76 264.577 1327.35 262.167L1326.81 261.628C1324.4 259.218 1324.4 255.288 1326.81 252.878L1509.88 69.8075C1512.29 67.3975 1516.22 67.3975 1518.63 69.8075L1519.17 70.3475C1521.58 72.7575 1521.58 76.6875 1519.17 79.0975Z" fill="white" fill-opacity="0.05"/>
<path d="M1574.17 259.098L1391.1 442.168C1388.69 444.578 1384.76 444.578 1382.35 442.168L1381.81 441.628C1379.4 439.218 1379.4 435.288 1381.81 432.878L1564.88 249.808C1567.29 247.398 1571.22 247.398 1573.63 249.808L1574.17 250.348C1576.58 252.758 1576.58 256.688 1574.17 259.098Z" fill="white" fill-opacity="0.05"/>
<path d="M1517.22 -307.887L1119.11 90.2225C1113.88 95.4525 1105.32 95.4525 1100.09 90.2225L1098.92 89.0525C1093.69 83.8225 1093.69 75.2625 1098.92 70.0325L1497.03 -328.077C1502.26 -333.307 1510.82 -333.307 1516.05 -328.077L1517.22 -326.907C1522.45 -321.677 1522.45 -313.117 1517.22 -307.887Z" fill="white" fill-opacity="0.05"/>
<path d="M1442.17 -131.902L1259.1 51.1675C1256.69 53.5775 1252.76 53.5775 1250.35 51.1675L1249.81 50.6275C1247.4 48.2175 1247.4 44.2875 1249.81 41.8775L1432.88 -141.192C1435.29 -143.602 1439.22 -143.602 1441.63 -141.192L1442.17 -140.652C1444.58 -138.242 1444.58 -134.312 1442.17 -131.902Z" fill="white" fill-opacity="0.05"/>
<path d="M1619.22 89.1125L1221.11 487.222C1215.88 492.452 1207.32 492.452 1202.09 487.222L1200.92 486.052C1195.69 480.822 1195.69 472.262 1200.92 467.032L1599.03 68.9225C1604.26 63.6925 1612.82 63.6925 1618.05 68.9225L1619.22 70.0925C1624.45 75.3225 1624.45 83.8825 1619.22 89.1125Z" fill="white" fill-opacity="0.05"/>
<path d="M3224.56 -1678.5L1251.5 294.56C1225.58 320.48 1183.16 320.48 1157.24 294.56L1151.44 288.761C1125.52 262.841 1125.52 220.417 1151.44 194.497L3124.5 -1778.56C3150.42 -1804.48 3192.84 -1804.48 3218.76 -1778.56L3224.56 -1772.76C3250.48 -1746.84 3250.48 -1704.42 3224.56 -1678.5Z" fill="white" fill-opacity="0.05"/>
</g>
<defs>
<linearGradient id="paint0_linear_55_9" x1="756" y1="0" x2="756" y2="982" gradientUnits="userSpaceOnUse">
<stop stop-color="#14B0BD"/>
<stop offset="1" stop-color="#004867"/>
</linearGradient>
<clipPath id="clip0_55_9">
<rect width="1512" height="982" fill="white"/>
</clipPath>
</defs>
</svg>
