<svg xmlns="http://www.w3.org/2000/svg" viewBox="0 0 14575.12 3817.64"><defs><style>.cls-1{fill:#6ab9c0f9;}.cls-2{fill:#6ab9c0f9;}.cls-3{fill:#6ab9c0f9;}.cls-4{fill:#6ab9c0f9;}.cls-5{fill:#6ab9c0f9;}.cls-6{stroke:#000;stroke-miterlimit:10;stroke-width:25px;}.cls-7{font-size:1196.39px;fill:#6ab9c0f9;font-family:PerpetuaTitlingMT-Light, Perpetua Titling MT;font-weight:300;}</style></defs><title>logito</title><g id="Capa_2" data-name="Capa 2"><path class="cls-1" d="M146.79,1083.69,1559,1107.83v102.6H1359.87l-48.12,20.62a103.63,103.63,0,0,0-53.1,51.45l-8.77,18.77a102.93,102.93,0,0,0-5.09,73.76l36.62,119.06,808.73,2106.3L2760.72,1798.2a85.46,85.46,0,0,0,5.37-29.81V1413.28a84.86,84.86,0,0,0-10.51-40.89L2717.94,1304a121.48,121.48,0,0,0-52.1-50.1l-70.93-35.46a132.61,132.61,0,0,0-59.28-14H2385.87l6-120.7h929.43v132.77l-51.89,1.39a83.74,83.74,0,0,0-46.45,29.49L3090.65,1402.1a112.08,112.08,0,0,0-16.9,29.65L1939.26,4397H1616.37L394.86,1369.5a160.92,160.92,0,0,0-21.45-37.61l-28.59-37.34a329.79,329.79,0,0,0-75.59-71.66l-13.81-9.44-108.63-3Z" transform="translate(-146.79 -961.85)"/><path class="cls-1" d="M3586.88,1017.3" transform="translate(-146.79 -961.85)"/><path class="cls-2" d="M3586.88,1152.72V1017.3H5175.66v143.34H4972l-88.27,43-58.84,95,18.1,77,651.81,1238,458-940.24a126.18,126.18,0,0,0,12.74-55.23V1347.58a66,66,0,0,0-23.58-50.56L5776,1157.84a72.2,72.2,0,0,0-48.28-16.85L5583,1144.8V1017.3H6679.57v135.42l-91.66-2.27-146,178.8L5682.62,2767.52l-7.49,1327.77a9,9,0,0,0,9,9h24.16l-1.06,45.62a64.33,64.33,0,0,0,28.74,55.1l79.54,52.77a79.25,79.25,0,0,0,42.68,12.48h173L6026.63,4397H4442.38V4259l207.94-3a54.75,54.75,0,0,0,45.54-25.54l30.08-47.65a43.64,43.64,0,0,0,6.62-26.38l-2-28,30.14,1.88a9,9,0,0,0,9.53-9L4766,3048.16,3749.83,1210.43c-16.32-28.53-86.37-55-119.22-56.18Z" transform="translate(-146.79 -961.85)"/><path class="cls-3" d="M6698.05,4107.35H7817.94a38.88,38.88,0,0,0,38.88-38.88v-9.75a38.88,38.88,0,0,0-38.88-38.88H7682.61A143.66,143.66,0,0,1,7539,3877.2L7531.19,2781a38.87,38.87,0,0,1,38.87-39.16H8635.71a38.88,38.88,0,0,1,38.88,38.88V3974.92a38.88,38.88,0,0,1-38.88,38.88H8374.26c-26.14,1.89-38.18,16.65-38.86,37.63l-.51,15.79a38.89,38.89,0,0,0,38.86,40.13H9498.4v-92H9209.9A38.88,38.88,0,0,1,9171,3976.4l2.2-2449.69a51.85,51.85,0,0,1,22.61-42.76l100.36-95.7a24.07,24.07,0,0,1,13.57-4.19l188.63-1.63v-87.51H8345.67v81.48L8586.33,1387c14.17.18,34.06,64.44,40.73,77l42.93,87.94a39,39,0,0,1,4.58,18.4l-2.89,1050A38.88,38.88,0,0,1,8632.9,2659l-1075.08,2.81a38.87,38.87,0,0,1-39-38.87V1541.85a38.87,38.87,0,0,1,13.21-29.2l150.5-132.34a38.9,38.9,0,0,1,26.37-9.68l115.52,2.07a37.73,37.73,0,0,0,38.41-37.72v-1a38.88,38.88,0,0,0-38.83-39.07H6736.87a38.83,38.83,0,0,0-38.82,38.88v25.85a38.88,38.88,0,0,0,37.85,38.87l172.43,4.54a38.85,38.85,0,0,1,30.33,15.87l80.78,110.16a38.81,38.81,0,0,1,7.53,23V3815.14c0,15.5-3.75,38.42-10.22,62.29-15.4,56.86-44,114.22-101.43,127.32l-60.36,14.9c-21.5,3.39-78.2,3.2-105.61,3.2h-69.79v84.5Z" transform="translate(-146.79 -961.85)"/><path class="cls-4" d="M11108.3,961.85c-725,0-1312.72,556.88-1312.72,1243.64s587.73,1243.64,1312.72,1243.64S12421,2892.25,12421,2205.49,11833.3,961.85,11108.3,961.85Zm0,2368.84c-336.76,0-609.85-508.12-609.85-1135.07s273.09-1135.07,609.85-1135.07,609.86,508.12,609.86,1135.07S11445.07,3330.69,11108.3,3330.69Z" transform="translate(-146.79 -961.85)"/><polygon class="cls-5" points="12393.38 103.73 13058.76 103.73 14154.16 1475.24 14131.53 316.47 14004.79 185.21 13828.26 180.68 13837.31 103.73 14575.12 103.73 14575.12 171.63 14357.85 307.42 14335.22 2346.58 14045.52 2346.58 12800.76 739.7 12812.07 2095.36 13061.03 2283.21 13108.55 2283.21 13108.55 2346.58 12411.48 2346.58 12411.48 2274.16 12646.86 2188.15 12639.31 278.75 12458.25 168.61 12393.38 168.61 12393.38 103.73"/><g id="lineasNegras"><line class="cls-6" x1="5946.23" y1="707.26" x2="5433.23" y2="1780.02"/><line class="cls-6" x1="12728.33" y1="637.85" x2="12728.33" y2="2072.73"/><line class="cls-6" x1="14231.11" y1="379.84" x2="14231.11" y2="1606.51"/></g><text class="cls-7" transform="translate(10077.22 3550.67)">CRM</text></g></svg>